PathFileType	4	(X/Y/Z)	C:\Users\italobelli\Desktop\GitHub\PTbot_officialCBL\Personal_Results\ABD03_noisy2.trc
DataRate	CameraRate	NumFrames	NumMarkers	Units	OrigDataRate	OrigDataStartFrame	OrigNumFrames
106.533333	106.533333	34	9	m	106.533333	701	800
Frame#	Time		gu		centelbow		EpL		centpxt8		centijc7		ij		ts		aa		ai
			X1	Y1	Z1	X2	Y2	Z2	X3	Y3	Z3	X4	Y4	Z4	X5	Y5	Z5	X6	Y6	Z6	X7	Y7	Z7	X8	Y8	Z8	X9	Y9	Z9

701	6.5707	-0.10083	-0.0048716	0.1678	-0.12211	-0.24873	0.19371	-0.12137	-0.24296	0.22526	-0.046816	-0.15316	-0.008669	-0.046816	0.031938	-0.008669	0	0	0	-0.13237	0.029006	0.040559	-0.13437	0.030729	0.15973	-0.14084	-0.083841	0.047543
702	6.5801	-0.10088	-0.0048585	0.16773	-0.12231	-0.24864	0.19392	-0.12148	-0.24282	0.22545	-0.046816	-0.15316	-0.008669	-0.046816	0.031938	-0.008669	0	0	0	-0.13244	0.028958	0.040525	-0.1344	0.030755	0.15969	-0.14093	-0.083869	0.04761
703	6.5895	-0.10094	-0.0048434	0.16766	-0.12255	-0.24853	0.19416	-0.12162	-0.24268	0.22567	-0.046816	-0.15316	-0.008669	-0.046816	0.031938	-0.008669	0	0	0	-0.13251	0.028907	0.040489	-0.13444	0.030785	0.15965	-0.14102	-0.083902	0.047678
704	6.5989	-0.101	-0.0048265	0.16758	-0.12281	-0.24842	0.19443	-0.12179	-0.24254	0.22591	-0.046816	-0.15316	-0.008669	-0.046816	0.031938	-0.008669	0	0	0	-0.13257	0.028853	0.040451	-0.13449	0.030816	0.15961	-0.14111	-0.083939	0.047747
705	6.6083	-0.10107	-0.0048079	0.1675	-0.1231	-0.24831	0.19473	-0.12199	-0.24239	0.22618	-0.046816	-0.15316	-0.008669	-0.046816	0.031938	-0.008669	0	0	0	-0.13264	0.028796	0.040412	-0.13454	0.03085	0.15956	-0.14121	-0.083981	0.047817
706	6.6176	-0.10116	-0.0047877	0.16743	-0.12342	-0.2482	0.19505	-0.12221	-0.24223	0.22648	-0.046816	-0.15316	-0.008669	-0.046816	0.031938	-0.008669	0	0	0	-0.13271	0.028736	0.04037	-0.1346	0.030887	0.15951	-0.1413	-0.084026	0.047888
707	6.627	-0.10124	-0.0047661	0.16735	-0.12376	-0.24808	0.19539	-0.12246	-0.24207	0.2268	-0.046816	-0.15316	-0.008669	-0.046816	0.031938	-0.008669	0	0	0	-0.13278	0.028673	0.040327	-0.13466	0.030926	0.15946	-0.14138	-0.084075	0.047959
708	6.6364	-0.10134	-0.0047432	0.16727	-0.12413	-0.24796	0.19576	-0.12273	-0.24191	0.22714	-0.046816	-0.15316	-0.008669	-0.046816	0.031938	-0.008669	0	0	0	-0.13285	0.028607	0.040282	-0.13473	0.030966	0.15941	-0.14147	-0.084128	0.048032
709	6.6458	-0.10144	-0.004719	0.16719	-0.12451	-0.24784	0.19615	-0.12302	-0.24175	0.22751	-0.046816	-0.15316	-0.008669	-0.046816	0.031938	-0.008669	0	0	0	-0.13292	0.028539	0.040236	-0.1348	0.031008	0.15936	-0.14156	-0.084184	0.048105
710	6.6552	-0.10155	-0.0046939	0.1671	-0.12492	-0.24772	0.19655	-0.12333	-0.24158	0.22789	-0.046816	-0.15316	-0.008669	-0.046816	0.031938	-0.008669	0	0	0	-0.13299	0.028469	0.040189	-0.13487	0.031052	0.1593	-0.14165	-0.084244	0.048179
711	6.6646	-0.10166	-0.0046678	0.16702	-0.12535	-0.24759	0.19698	-0.12366	-0.24141	0.22829	-0.046816	-0.15316	-0.008669	-0.046816	0.031938	-0.008669	0	0	0	-0.13305	0.028396	0.04014	-0.13495	0.031098	0.15925	-0.14173	-0.084307	0.048254
712	6.674	-0.10177	-0.004641	0.16694	-0.12579	-0.24746	0.19742	-0.12401	-0.24124	0.22871	-0.046816	-0.15316	-0.008669	-0.046816	0.031938	-0.008669	0	0	0	-0.13312	0.02832	0.040091	-0.13503	0.031144	0.15919	-0.14181	-0.084374	0.048329
713	6.6834	-0.10189	-0.0046135	0.16686	-0.12625	-0.24734	0.19787	-0.12438	-0.24106	0.22914	-0.046816	-0.15316	-0.008669	-0.046816	0.031938	-0.008669	0	0	0	-0.13319	0.028242	0.04004	-0.13512	0.031192	0.15914	-0.14189	-0.084443	0.048404
714	6.6927	-0.10202	-0.0045855	0.16677	-0.12672	-0.24721	0.19834	-0.12475	-0.24089	0.22959	-0.046816	-0.15316	-0.008669	-0.046816	0.031938	-0.008669	0	0	0	-0.13326	0.028162	0.039989	-0.1352	0.031241	0.15908	-0.14197	-0.084516	0.048481
715	6.7021	-0.10215	-0.0045572	0.16669	-0.12721	-0.24708	0.19882	-0.12514	-0.24071	0.23005	-0.046816	-0.15316	-0.008669	-0.046816	0.031938	-0.008669	0	0	0	-0.13333	0.02808	0.039938	-0.13529	0.03129	0.15903	-0.14205	-0.084591	0.048557
716	6.7115	-0.10228	-0.0045286	0.16661	-0.1277	-0.24695	0.19931	-0.12554	-0.24054	0.23052	-0.046816	-0.15316	-0.008669	-0.046816	0.031938	-0.008669	0	0	0	-0.1334	0.027996	0.039886	-0.13538	0.03134	0.15897	-0.14213	-0.084669	0.048634
717	6.7209	-0.10241	-0.0044999	0.16652	-0.12821	-0.24682	0.19981	-0.12595	-0.24036	0.231	-0.046816	-0.15316	-0.008669	-0.046816	0.031938	-0.008669	0	0	0	-0.13346	0.02791	0.039834	-0.13547	0.031391	0.15891	-0.1422	-0.08475	0.048711
718	6.7303	-0.10254	-0.0044713	0.16644	-0.12873	-0.2467	0.20032	-0.12637	-0.24019	0.23149	-0.046816	-0.15316	-0.008669	-0.046816	0.031938	-0.008669	0	0	0	-0.13353	0.027822	0.039781	-0.13556	0.031442	0.15885	-0.14228	-0.084833	0.048789
719	6.7397	-0.10268	-0.0044428	0.16636	-0.12925	-0.24657	0.20083	-0.12679	-0.24002	0.23198	-0.046816	-0.15316	-0.008669	-0.046816	0.031938	-0.008669	0	0	0	-0.1336	0.027732	0.039729	-0.13566	0.031492	0.1588	-0.14235	-0.084919	0.048867
720	6.7491	-0.10282	-0.0044146	0.16628	-0.12978	-0.24645	0.20135	-0.12722	-0.23984	0.23248	-0.046816	-0.15316	-0.008669	-0.046816	0.031938	-0.008669	0	0	0	-0.13366	0.027641	0.039676	-0.13575	0.031543	0.15874	-0.14242	-0.085006	0.048944
721	6.7584	-0.10295	-0.0043868	0.16619	-0.13031	-0.24632	0.20187	-0.12765	-0.23967	0.23298	-0.046816	-0.15316	-0.008669	-0.046816	0.031938	-0.008669	0	0	0	-0.13373	0.027548	0.039624	-0.13584	0.031594	0.15868	-0.14248	-0.085096	0.049022
722	6.7678	-0.10309	-0.0043596	0.16611	-0.13084	-0.2462	0.20239	-0.12808	-0.23951	0.23348	-0.046816	-0.15316	-0.008669	-0.046816	0.031938	-0.008669	0	0	0	-0.13379	0.027453	0.039573	-0.13594	0.031644	0.15863	-0.14255	-0.085188	0.0491
723	6.7772	-0.10323	-0.0043331	0.16603	-0.13138	-0.24608	0.20291	-0.12851	-0.23934	0.23399	-0.046816	-0.15316	-0.008669	-0.046816	0.031938	-0.008669	0	0	0	-0.13386	0.027357	0.039521	-0.13603	0.031694	0.15857	-0.14261	-0.085281	0.049178
724	6.7866	-0.10337	-0.0043074	0.16595	-0.13191	-0.24597	0.20343	-0.12894	-0.23918	0.23449	-0.046816	-0.15316	-0.008669	-0.046816	0.031938	-0.008669	0	0	0	-0.13392	0.02726	0.039471	-0.13612	0.031742	0.15852	-0.14267	-0.085376	0.049256
725	6.796	-0.1035	-0.0042827	0.16587	-0.13245	-0.24586	0.20395	-0.12937	-0.23902	0.23499	-0.046816	-0.15316	-0.008669	-0.046816	0.031938	-0.008669	0	0	0	-0.13399	0.027162	0.039421	-0.13621	0.03179	0.15846	-0.14273	-0.085473	0.049334
726	6.8054	-0.10364	-0.0042591	0.16579	-0.13298	-0.24575	0.20446	-0.12979	-0.23887	0.23549	-0.046816	-0.15316	-0.008669	-0.046816	0.031938	-0.008669	0	0	0	-0.13405	0.027062	0.039372	-0.1363	0.031837	0.15841	-0.14278	-0.085571	0.049412
727	6.8148	-0.10377	-0.0042368	0.16572	-0.1335	-0.24564	0.20497	-0.13021	-0.23872	0.23598	-0.046816	-0.15316	-0.008669	-0.046816	0.031938	-0.008669	0	0	0	-0.13411	0.026961	0.039325	-0.13639	0.031883	0.15836	-0.14284	-0.08567	0.049489
728	6.8242	-0.1039	-0.0042158	0.16564	-0.13402	-0.24554	0.20547	-0.13062	-0.23858	0.23646	-0.046816	-0.15316	-0.008669	-0.046816	0.031938	-0.008669	0	0	0	-0.13417	0.026859	0.039278	-0.13647	0.031927	0.15831	-0.14289	-0.08577	0.049566
729	6.8335	-0.10402	-0.0041963	0.16556	-0.13453	-0.24545	0.20596	-0.13102	-0.23844	0.23694	-0.046816	-0.15316	-0.008669	-0.046816	0.031938	-0.008669	0	0	0	-0.13423	0.026756	0.039233	-0.13656	0.03197	0.15826	-0.14294	-0.085872	0.049643
730	6.8429	-0.10414	-0.0041784	0.16549	-0.13503	-0.24536	0.20644	-0.1314	-0.2383	0.2374	-0.046816	-0.15316	-0.008669	-0.046816	0.031938	-0.008669	0	0	0	-0.13429	0.026653	0.039189	-0.13664	0.032011	0.15822	-0.14298	-0.085974	0.049719
731	6.8523	-0.10426	-0.0041623	0.16542	-0.13552	-0.24527	0.20691	-0.13178	-0.23818	0.23785	-0.046816	-0.15316	-0.008669	-0.046816	0.031938	-0.008669	0	0	0	-0.13434	0.026548	0.039147	-0.13671	0.03205	0.15817	-0.14302	-0.086077	0.049795
732	6.8617	-0.10438	-0.0041481	0.16535	-0.136	-0.24519	0.20736	-0.13214	-0.23805	0.2383	-0.046816	-0.15316	-0.008669	-0.046816	0.031938	-0.008669	0	0	0	-0.1344	0.026443	0.039107	-0.13679	0.032087	0.15813	-0.14306	-0.086181	0.04987
733	6.8711	-0.10449	-0.004136	0.16528	-0.13646	-0.24512	0.2078	-0.13249	-0.23794	0.23872	-0.046816	-0.15316	-0.008669	-0.046816	0.031938	-0.008669	0	0	0	-0.13445	0.026337	0.039068	-0.13686	0.032121	0.15809	-0.1431	-0.086286	0.049945
734	6.8805	-0.10459	-0.004126	0.16521	-0.13691	-0.24505	0.20823	-0.13281	-0.23783	0.23913	-0.046816	-0.15316	-0.008669	-0.046816	0.031938	-0.008669	0	0	0	-0.13451	0.026231	0.039032	-0.13692	0.032154	0.15805	-0.14313	-0.08639	0.050019
